<svg version="1" xmlns="http://www.w3.org/2000/svg" width="346.667" height="346.667" viewBox="0 0 260.000000 260.000000"><path d="M91.4 30.5c-1.1.9-4.2 1.4-7.9 1.5-24.1.1-52.3 8.6-63.9 19.2-4.1 3.8-4.1 3.8-1.1 3.1 1.7-.5 6.2-.8 10-.8 8.9 0 15.6 3.1 20.2 9.3 4.4 5.8 6.4 12.9 6.8 24.2l.4 9.5 4.8 2.6C69.8 103.9 74 113.3 74 129v8h4.1c3.1 0 4.7.6 6.9 2.8 5.1 5.1 5 13.2-.2 13.2-5.8 0-10.7 6.5-9.2 12.4.5 2.1.1 2.8-2 3.7-2.6 1.2-3.5 2.9-1.5 2.9.5 0 .7.5.4 1-.4.7.2.9 1.8.5 1.9-.5 2.6-.2 3 1.2.3 1.4.7 1.1 1.7-1.5 1.5-4 3.7-4.1 10.7-.7 5.8 2.9 14.1 11.2 17.1 17.2l2.1 4-3.2 2.9c-2.6 2.4-2.9 2.9-1.4 3.2.9.2 1.7 1.1 1.7 2.1 0 3 4.4 2 4.8-1.1.2-2 1-2.7 3.6-3.2 4.4-.8 7.7-4.5 7.8-8.7.1-4.7.5-5.1 3.8-3.4 3.9 2 6 5.3 6 9.3 0 3.3.1 3.4 3.3 2.8 17.1-3.1 23-3 30.5.6 2.3 1.1 5.6 3.7 7.3 5.7l3 3.8 7.7-2c23.9-6 41.4 5 41.4 26 0 2.3.3 4.3.8 4.3 1.3 0 5.1-8.9 7.1-16.4 3.7-13.6 3.4-35.8-.6-53.3-1.1-4.9-1.2-6.9-.3-8.8 1.9-4.2-.3-6.8-6.9-8.4-4.1-.9-5.8-1-6.7-.1-.8.8-.5 1.6 1.3 2.9 3.4 2.6 2.3 4.9-3.7 8.3-13.1 7.4-28 10.1-44.4 7.8-12.8-1.7-14.7-2.6-7.8-3.4 9.6-1.2 16.9-2.8 18.5-4 1.9-1.3 3.1-9 3-19.4V134h5.5c25.3 0 43.5-14.1 44.8-34.7.4-6.2.2-7.3-1.1-7.3-.9 0-1.8.4-2.2.9-1.9 3.1-31.7 11.9-51.5 15.2-5 .8-5.6.7-8-1.6-3.4-3.2-15.6-9.5-18.5-9.5-1.4 0-2.8-.8-3.4-1.8-.5-.9-1.9-8.5-3.1-16.7-1.6-11.5-2.1-18.8-1.9-31.2.1-9 0-16.6-.4-16.9-1-1.1-11.3 4.3-15.6 8.2-5 4.4-7.4 8.7-9.5 17.1-2.9 11.1-1.5 26.5 3.4 36.5 1.1 2.3 1.9 4.2 1.7 4.4-.1.1-3.6 1-7.7 2.1l-7.5 1.8-.5 8.4c-.5 7.8-.6 8.2-2.1 6.5-.9-1.1-3.9-5.8-6.7-10.7-5.5-9.6-10.1-22.7-11.1-31.8-1.1-9.2.6-21.9 4.1-31.2 1.1-3 4.5-3.7 5.4-1.2 1 2.4 3.4 1.8 3.4-.8 0-3.2-5.5-10.7-7.8-10.7-1 0-2.7.7-3.8 1.5z"/></svg>