<?xml version="1.0" encoding="utf-8"?>
<!-- Generator: Adobe Illustrator 23.0.2, SVG Export Plug-In . SVG Version: 6.00 Build 0)  -->
<svg version="1.1" id="Layer_1" xmlns="http://www.w3.org/2000/svg" xmlns:xlink="http://www.w3.org/1999/xlink" x="0px" y="0px"
	 viewBox="0 0 552.4 170.6" style="enable-background:new 0 0 552.4 170.6;" xml:space="preserve">
<style type="text/css">
	.st0{fill:none;stroke:#000000;stroke-width:5;stroke-miterlimit:10;}
	.st1{fill:none;stroke:#000000;stroke-width:12;stroke-linecap:round;stroke-miterlimit:10;}
	.st2{display:none;}
	.st3{fill:none;}
	.st4{fill:#E78F00;}
	.st5{font-family:'BebasNeueRegular';}
	.st6{font-size:86.9209px;}
	.st7{letter-spacing:6;}
	.st8{fill:#E68F24;}
	.st9{fill:none;stroke:#E68F24;stroke-width:6;stroke-miterlimit:10;}
	.st10{font-family:'BebasNeueBook';}
	.st11{font-size:28px;}
</style>
<g>
	<path class="st0" d="M106.3,139.4l-17.2,20.4H46c0,0,14.9-32.9,39.2-36c0,0,32.1,4.7,75.2-5.5c0,0,23.5-22.7,30.5-56.4"/>
	<path class="st0" d="M170.2,57.2c0,0,26.5,9.6,41.3-5.6L201,43.7l20.4-13c0,0,3-5.6-21.7-5.6c0,0-26.5-20.9-29.5-3.5
		c0,0,0.4-16.5-24.3-15.2c0,0,13.9,11.3,10,23.9c0,0-10.4,1.7-20.9,13l-16.5-15.8"/>
	<line class="st0" x1="133.2" y1="24.9" x2="141" y2="37.7"/>
	<path class="st0" d="M210.5,37.7"/>
	<path id="SVGID_x5F_1_x5F_" class="st1" d="M210.5,37.7l4.7,5.6"/>
	<text class="st2">	<textPath  xlink:href="#SVGID_x5F_1_x5F_" startOffset="0%"  style="display:inline;">
<tspan  style="stroke:#000000;stroke-width:5;stroke-miterlimit:10; font-family:'MyriadPro-Regular'; font-size:4.1722px;">Lor</tspan>	</textPath>
</text>
</g>
<rect x="214.1" y="45" class="st3" width="291.6" height="75.8"/>
<text transform="matrix(1 0 0 1 214.0552 105.8666)"><tspan x="0" y="0" class="st4 st5 st6 st7">Bat</tspan><tspan x="121.6" y="0" class="st5 st6 st7">alog</tspan></text>
<g>
	<path class="st8" d="M186.2,31.8"/>
	<g>
		<path class="st8" d="M186.2,34.6c3.5,0,3.5-5.5,0-5.5C182.6,29.1,182.6,34.6,186.2,34.6L186.2,34.6z"/>
	</g>
</g>
<g>
	<path class="st9" d="M50.3,85l75.6,4.7c0,0,10.1-4.7-2.8-11.2c-12.9-6.5-62.8-35.2-62.8-35.2"/>
	<path class="st9" d="M128.9,82.9"/>
	<path class="st9" d="M54.2,61.9"/>
	<line class="st9" x1="126.7" y1="85.2" x2="53.1" y2="63.6"/>
	<path class="st9" d="M72,22.8l79.5,54.3c0,0,17.4,14.3-3,23.5L48.1,108"/>
</g>
<rect x="217.4" y="124.1" class="st3" width="451.1" height="55.6"/>
<text transform="matrix(1 0 0 1 217.4124 143.6626)" class="st10 st11">Login or Signup to upload a file</text>
</svg>
