<svg id="Layer_1" data-name="Layer 1" xmlns="http://www.w3.org/2000/svg" viewBox="0 0 626.4 175.93"><defs><style>.cls-1,.cls-6{fill:none;stroke-miterlimit:10;}.cls-1{stroke:#000;stroke-width:5px;}.cls-2{font-size:86.92px;fill:#e78f00;font-family:BebasNeueRegular, Bebas Neue;letter-spacing:0.07em;}.cls-3{letter-spacing:0.04em;}.cls-4{letter-spacing:0.07em;fill:#000;}.cls-5{fill:#e68f24;}.cls-6{stroke:#e68f24;stroke-width:6px;}.cls-7{font-size:28px;font-family:BebasNeueBook, Bebas Neue;}.cls-8{letter-spacing:0em;}</style></defs><title>batalogSign</title><path class="cls-1" d="M132.1,139.4l-17.23,20.37H71.8s14.88-32.9,39.16-36c0,0,32.1,4.7,75.18-5.48,0,0,23.49-22.71,30.54-56.39" transform="translate(-67.92 -3.75)"/><path class="cls-1" d="M196,57.16s26.5,9.56,41.28-5.65l-10.43-7.82,20.42-13s3-5.64-21.73-5.64c0,0-26.5-20.86-29.54-3.48,0,0,.43-16.51-24.33-15.21,0,0,13.9,11.3,10,23.9,0,0-10.43,1.74-20.85,13L144.24,27.46" transform="translate(-67.92 -3.75)"/><line class="cls-1" x1="91.03" y1="21.19" x2="98.88" y2="33.92"/><path class="cls-1" d="M236.24,37.67" transform="translate(-67.92 -3.75)"/><text class="cls-2" transform="translate(171.92 102.12)">B<tspan class="cls-3" x="40.59" y="0">at</tspan><tspan class="cls-4" x="115" y="0">alog</tspan></text><path class="cls-5" d="M212,31.82" transform="translate(-67.92 -3.75)"/><path class="cls-5" d="M212,34.57c3.54,0,3.54-5.5,0-5.5s-3.55,5.5,0,5.5Z" transform="translate(-67.92 -3.75)"/><path class="cls-6" d="M76,85l75.6,4.67s10.07-4.67-2.79-11.18S86,43.25,86,43.25" transform="translate(-67.92 -3.75)"/><path class="cls-6" d="M154.71,82.94" transform="translate(-67.92 -3.75)"/><path class="cls-6" d="M80,61.87" transform="translate(-67.92 -3.75)"/><line class="cls-6" x1="84.56" y1="81.5" x2="10.99" y2="59.84"/><path class="cls-6" d="M97.77,22.83l79.51,54.31s17.38,14.34-3,23.47L73.87,108" transform="translate(-67.92 -3.75)"/><text class="cls-7" transform="translate(175.28 139.91)">Login or Signup to upl<tspan class="cls-8" x="190.93" y="0">o</tspan><tspan x="201.57" y="0">ad a file</tspan></text></svg>