<svg id="Layer_1" data-name="Layer 1" xmlns="http://www.w3.org/2000/svg" viewBox="0 0 463.52 158.52"><defs><style>.cls-1,.cls-6{fill:none;stroke-miterlimit:10;}.cls-1{stroke:#000;stroke-width:5px;}.cls-2{font-size:86.92px;fill:#e78f00;font-family:BebasNeueRegular, Bebas Neue;letter-spacing:0.07em;}.cls-3{letter-spacing:0.04em;}.cls-4{letter-spacing:0.07em;fill:#000;}.cls-5{fill:#e68f24;}.cls-6{stroke:#e68f24;stroke-width:6px;}.cls-7{font-size:36px;font-family:BebasNeueBook, Bebas Neue;}.cls-8{letter-spacing:-0.06em;}.cls-9{letter-spacing:-0.01em;}</style></defs><title>batalogFileAnalysis</title><path class="cls-1" d="M73,142.74,55.74,163.1H12.67s14.88-32.89,39.16-36c0,0,32.11,4.7,75.18-5.48,0,0,23.5-22.71,30.54-56.39" transform="translate(-8.8 -7.09)"/><path class="cls-1" d="M136.83,60.5s26.51,9.55,41.28-5.65L167.68,47,188.1,34s3-5.65-21.72-5.65c0,0-26.51-20.85-29.55-3.47,0,0,.44-16.51-24.33-15.21,0,0,13.9,11.3,10,23.9,0,0-10.42,1.74-20.85,13L85.11,30.79" transform="translate(-8.8 -7.09)"/><line class="cls-1" x1="91.03" y1="21.19" x2="98.88" y2="33.92"/><path class="cls-1" d="M177.11,41" transform="translate(-8.8 -7.09)"/><text class="cls-2" transform="translate(171.92 102.12)">B<tspan class="cls-3" x="40.59" y="0">at</tspan><tspan class="cls-4" x="115" y="0">alog</tspan></text><path class="cls-5" d="M152.82,35.16" transform="translate(-8.8 -7.09)"/><path class="cls-5" d="M152.82,37.91c3.54,0,3.55-5.5,0-5.5s-3.54,5.5,0,5.5Z" transform="translate(-8.8 -7.09)"/><path class="cls-6" d="M16.92,88.3,92.52,93s10.06-4.67-2.79-11.18-62.82-35.2-62.82-35.2" transform="translate(-8.8 -7.09)"/><path class="cls-6" d="M95.58,86.28" transform="translate(-8.8 -7.09)"/><path class="cls-6" d="M20.83,65.21" transform="translate(-8.8 -7.09)"/><line class="cls-6" x1="84.56" y1="81.5" x2="10.99" y2="59.84"/><path class="cls-6" d="M38.64,26.17l79.51,54.31s17.38,14.34-3,23.46L14.74,111.33" transform="translate(-8.8 -7.09)"/><text class="cls-7" transform="translate(175.28 143.97)">File Ana<tspan class="cls-8" x="92.37" y="0">l</tspan><tspan class="cls-9" x="102.2" y="0">y</tspan><tspan x="116.89" y="0">sis</tspan></text></svg>