<svg id="Layer_1" data-name="Layer 1" xmlns="http://www.w3.org/2000/svg" viewBox="0 0 499.33 164.26"><defs><style>.cls-1,.cls-5,.cls-6{fill:none;}.cls-1,.cls-5{stroke:#000;}.cls-1{stroke-miterlimit:10;stroke-width:5px;}.cls-2,.cls-4,.cls-9{fill:#e68f24;}.cls-3{font-size:48px;font-family:BebasNeueBold, Bebas Neue;}.cls-4{letter-spacing:0em;}.cls-5,.cls-6{stroke-linecap:round;stroke-linejoin:round;stroke-width:4px;}.cls-6{stroke:#e68f24;}.cls-7{font-size:21.43px;font-family:BebasNeueRegular, Bebas Neue;letter-spacing:0.5em;}.cls-8{letter-spacing:0.46em;}.cls-9{letter-spacing:0.5em;}</style></defs><title>batalogSignUp</title><path class="cls-1" d="M82.42,35.51" transform="translate(-68.32 -13.18)"/><path class="cls-2" d="M58.13,29.67" transform="translate(-68.32 -13.18)"/><text class="cls-3" transform="translate(153.62 66.67)">Login<tspan class="cls-2" x="83.61" y="0" xml:space="preserve"> or</tspan><tspan x="129.36" y="0" xml:space="preserve"> Signup </tspan><tspan x="-4.39" y="45">to </tspan><tspan class="cls-2" x="39.14" y="45">upl</tspan><tspan class="cls-4" x="92.61" y="45">o</tspan><tspan class="cls-2" x="111.57" y="45">ad </tspan><tspan x="158.13" y="45">a file</tspan></text><path class="cls-5" d="M115.26,107.23l-14.07,13.14-30.87-3.63s13.44-22.32,31.11-22.52c0,0,22.62,6.08,54.35,2.42,0,0,18.76-14.29,26.66-37.84" transform="translate(-68.32 -13.18)"/><path class="cls-5" d="M168,53.68s18.19,9.09,30.07-.57l-6.82-6.48L207,39s2.66-3.79-15.09-5.88c0,0-17.24-17.19-20.89-5,0,0,1.71-11.8-16.15-13,0,0,9,9.27,5.14,18,0,0-7.62.36-16,7.58L133.42,28" transform="translate(-68.32 -13.18)"/><line class="cls-5" x1="75.86" y1="14.27" x2="80.41" y2="24.06"/><path class="cls-5" d="M198.5,43.11" transform="translate(-68.32 -13.18)"/><path class="cls-2" d="M184.86,37.9" transform="translate(-68.32 -13.18)"/><path class="cls-2" d="M184.86,40.65c3.54,0,3.55-5.5,0-5.5s-3.54,5.5,0,5.5Z" transform="translate(-68.32 -13.18)"/><path class="cls-6" d="M79.68,63.48l53.79,9.73s7.61-2.5-1.05-8.25-42-30.53-42-30.53" transform="translate(-68.32 -13.18)"/><path class="cls-6" d="M136.24,68.67" transform="translate(-68.32 -13.18)"/><path class="cls-6" d="M84.43,47.26" transform="translate(-68.32 -13.18)"/><line class="cls-6" x1="66.13" y1="56.95" x2="15.23" y2="35.22"/><path class="cls-6" d="M100.5,20.78l52.4,45.64S164.15,78.17,148.74,83L76.18,79.8" transform="translate(-68.32 -13.18)"/><text class="cls-7" transform="translate(2 130.15)">B<tspan class="cls-8" x="19.11" y="0">at</tspan><tspan class="cls-9" x="55.67" y="0">alog</tspan></text></svg>