<?xml version="1.0" standalone="no"?>
<!DOCTYPE svg PUBLIC "-//W3C//DTD SVG 20010904//EN"
 "http://www.w3.org/TR/2001/REC-SVG-20010904/DTD/svg10.dtd">
<svg version="1.0" xmlns="http://www.w3.org/2000/svg"
 width="258.000000pt" height="258.000000pt" viewBox="0 0 258.000000 258.000000"
 preserveAspectRatio="xMidYMid meet">
<metadata>
Created by potrace 1.11, written by Peter Selinger 2001-2013
</metadata>
<g transform="translate(0.000000,258.000000) scale(0.100000,-0.100000)"
fill="#000000" stroke="none">
<path d="M1577 2276 c-3 -8 3 -26 14 -40 31 -39 77 -148 80 -186 5 -80 1 -89
-38 -100 -21 -6 -56 -19 -78 -30 -22 -10 -43 -16 -46 -12 -3 4 -18 39 -34 77
-30 74 -40 86 -62 78 -19 -7 -17 -18 21 -110 l33 -82 -21 -20 -21 -20 -75 105
c-91 127 -93 130 -114 108 -15 -15 -14 -20 21 -67 20 -29 62 -87 92 -129 30
-43 61 -78 68 -78 8 0 37 18 65 41 63 49 111 74 172 90 36 9 50 18 58 38 23
60 8 172 -33 253 -14 27 -16 38 -7 38 28 -1 95 -39 121 -69 26 -31 54 -108 43
-118 -9 -9 14 -43 29 -43 7 0 22 17 32 38 13 27 25 38 45 40 39 5 113 -38 188
-108 57 -53 69 -59 129 -70 68 -13 161 -47 161 -60 0 -4 -12 -12 -27 -19 -85
-38 -223 -124 -223 -139 0 -9 21 -38 47 -64 55 -55 51 -67 -29 -94 -92 -30
-197 -20 -321 32 -61 26 -77 25 -77 -5 0 -20 23 -33 120 -66 73 -25 74 -25 96
-25 21 0 14 -27 -38 -150 -52 -124 -129 -254 -216 -365 -90 -116 -143 -167
-179 -170 -15 -2 -53 -6 -83 -10 -69 -7 -346 -7 -420 0 -102 10 -205 26 -265
42 -33 9 -76 15 -95 14 -153 -7 -328 -141 -469 -360 -61 -95 -58 -103 44 -116
28 -3 65 -8 83 -11 17 -2 47 -6 65 -8 111 -15 135 -18 157 -22 14 -2 53 -7 86
-10 l61 -6 70 73 c172 181 193 212 148 216 -14 1 -53 -34 -129 -118 l-109
-120 -46 6 c-25 3 -57 8 -71 10 -14 2 -79 11 -145 20 -172 22 -176 23 -182 29
-10 9 82 132 151 202 87 87 143 126 218 149 56 18 94 16 213 -11 147 -33 418
-46 637 -29 143 10 145 11 264 152 117 137 221 316 285 488 18 50 34 91 35 93
2 3 19 6 88 17 49 7 119 41 147 71 24 26 21 34 -33 93 -21 22 -38 42 -38 45 0
3 49 32 109 66 60 33 114 67 120 74 15 18 -1 59 -31 80 -24 17 -126 50 -188
61 -24 4 -55 24 -95 62 -83 77 -149 113 -205 113 -26 0 -51 -5 -57 -11 -9 -9
-16 -3 -27 22 -19 42 -32 58 -76 91 -67 49 -201 77 -213 44z"/>
<path d="M696 2184 c-11 -11 -13 -20 -7 -32 5 -9 204 -210 441 -447 306 -305
437 -442 451 -472 36 -79 17 -143 -52 -179 -25 -12 -56 -14 -187 -8 -86 3
-177 8 -202 9 -25 2 -115 6 -200 10 -85 4 -171 8 -190 10 -19 2 -109 7 -200
10 -91 4 -180 8 -199 10 -44 4 -61 -3 -61 -25 0 -34 7 -35 235 -45 88 -3 180
-8 204 -10 24 -2 114 -6 200 -10 86 -3 176 -8 201 -10 25 -2 115 -6 200 -10
85 -3 157 -8 159 -10 6 -7 74 25 108 51 41 31 63 72 64 121 2 114 -7 125 -494
611 -244 243 -447 442 -450 442 -3 0 -13 -7 -21 -16z"/>
<path d="M527 1933 c-14 -14 -6 -42 17 -60 13 -10 144 -119 292 -243 148 -124
297 -247 332 -274 34 -27 62 -51 62 -53 0 -2 -3 -2 -7 0 -5 3 -42 20 -83 40
-41 19 -214 103 -384 186 -170 84 -317 150 -325 149 -9 -2 -17 -13 -19 -26 -4
-23 -13 -19 636 -333 100 -49 182 -91 182 -94 0 -4 -4 -4 -8 -1 -5 3 -19 7
-33 10 -36 6 -456 93 -594 122 -240 50 -225 48 -241 33 -20 -20 1 -48 41 -54
17 -3 59 -12 95 -20 36 -8 166 -35 290 -60 124 -25 268 -55 320 -66 159 -35
165 -35 200 -1 57 58 36 115 -73 199 -57 44 -536 440 -547 452 -3 3 -30 27
-62 54 -54 45 -77 55 -91 40z"/>
<path d="M2070 1865 c-16 -20 -5 -45 19 -45 24 0 33 13 25 33 -8 22 -31 28
-44 12z"/>
</g>
</svg>
