<?xml version="1.0" standalone="no"?>
<!DOCTYPE svg PUBLIC "-//W3C//DTD SVG 20010904//EN"
 "http://www.w3.org/TR/2001/REC-SVG-20010904/DTD/svg10.dtd">
<svg version="1.0" xmlns="http://www.w3.org/2000/svg"
 width="260.000000pt" height="260.000000pt" viewBox="0 0 260.000000 260.000000"
 preserveAspectRatio="xMidYMid meet">
<metadata>
Created by potrace 1.11, written by Peter Selinger 2001-2013
</metadata>
<g transform="translate(0.000000,260.000000) scale(0.100000,-0.100000)"
fill="#000000" stroke="none">
<path d="M1574 2337 c-3 -9 8 -35 27 -63 56 -82 87 -190 71 -249 -7 -23 -17
-32 -48 -41 -23 -7 -55 -19 -73 -29 -18 -9 -38 -14 -45 -12 -7 3 -24 36 -40
75 -28 73 -47 98 -66 87 -16 -10 -12 -34 22 -117 25 -61 30 -83 22 -96 -21
-32 -43 -17 -114 83 -84 117 -98 129 -117 113 -8 -6 -12 -17 -9 -24 13 -35
189 -264 202 -264 9 0 34 16 57 36 49 41 170 104 202 104 33 0 54 30 61 91 7
59 -14 164 -41 202 -32 46 -10 60 48 31 69 -35 105 -85 116 -163 5 -36 11 -47
27 -49 14 -2 24 7 37 32 34 72 100 53 238 -66 77 -66 86 -71 163 -88 89 -19
131 -34 140 -49 8 -12 -24 -34 -148 -102 -54 -30 -101 -60 -103 -67 -3 -7 17
-39 45 -71 28 -31 47 -62 44 -68 -12 -18 -66 -41 -125 -52 -73 -13 -189 5
-276 44 -63 28 -95 28 -89 -2 4 -22 82 -60 166 -81 35 -8 66 -21 69 -27 7 -20
-74 -212 -138 -325 -71 -126 -166 -254 -246 -332 l-58 -57 -150 -12 c-217 -17
-514 3 -690 46 -82 20 -132 19 -201 -5 -125 -43 -271 -172 -378 -334 -65 -98
-74 -120 -55 -132 7 -4 135 -24 284 -45 l270 -37 118 122 c65 66 125 131 134
144 15 21 15 25 0 39 -18 18 -3 31 -192 -166 -76 -79 -81 -83 -115 -77 -19 3
-107 15 -195 26 -225 29 -235 31 -235 45 0 23 120 173 194 242 75 71 170 126
237 138 23 4 72 -1 130 -13 52 -11 135 -26 184 -33 103 -15 489 -18 609 -6 73
8 82 12 123 50 145 134 327 422 407 648 l27 75 70 12 c39 7 85 19 102 28 48
24 97 63 97 77 0 7 -20 35 -45 64 -25 28 -45 55 -45 60 0 4 52 36 115 71 119
65 143 88 126 120 -23 43 -113 85 -212 98 -45 6 -61 15 -108 58 -115 106 -186
142 -259 132 l-48 -6 -34 52 c-28 42 -49 60 -100 86 -78 39 -176 55 -186 29z"/>
<path d="M637 2233 c-4 -3 -7 -13 -7 -22 0 -9 209 -223 464 -476 488 -483 505
-502 506 -587 0 -25 -8 -46 -26 -68 -51 -60 -63 -62 -282 -51 -108 6 -389 20
-624 32 -235 12 -435 19 -444 15 -9 -3 -14 -15 -12 -28 3 -21 11 -24 73 -30
118 -12 961 -52 1112 -52 l141 -1 39 31 c62 50 83 89 83 153 0 116 -3 119
-517 629 -257 254 -474 462 -483 462 -9 0 -20 -3 -23 -7z"/>
<path d="M460 1961 c-8 -16 -5 -25 12 -44 30 -32 451 -386 596 -501 183 -145
184 -145 -332 108 -197 97 -364 176 -371 176 -7 0 -18 -7 -25 -15 -19 -23 1
-40 114 -94 56 -27 198 -96 316 -154 118 -57 254 -123 301 -145 82 -38 116
-62 88 -62 -7 0 -199 39 -427 86 -227 47 -423 84 -435 82 -14 -2 -23 -11 -25
-25 -3 -18 4 -24 35 -32 48 -14 912 -191 929 -191 25 0 74 60 74 91 0 50 -25
82 -122 160 -92 73 -340 279 -574 477 -67 56 -127 102 -132 102 -6 0 -16 -9
-22 -19z"/>
<path d="M2094 1896 c-9 -24 4 -48 23 -44 24 4 24 52 0 56 -9 2 -20 -4 -23
-12z"/>
</g>
</svg>
